ISO-10303-21;
HEADER;
FILE_DESCRIPTION(('CATIA V5 STEP Exchange'),'2;1');

FILE_NAME('\\\\Mac\\Home\\Downloads\\airfoil2d.stp','2026-01-22T18:37:02+00:00',('none'),('none'),'CATIA Version 5 Release 20 GA (IN-10)','CATIA V5 STEP AP203','none');

FILE_SCHEMA(('CONFIG_CONTROL_DESIGN'));

ENDSEC;
/* file written by CATIA V5R20 */
DATA;
#5=PRODUCT('Body 1','Body 1','Body 1',(#2)) ;
#1=APPLICATION_CONTEXT('configuration controlled 3D design of mechanical parts and assemblies') ;
#14=PRODUCT_DEFINITION('',' ',#6,#3) ;
#16=SECURITY_CLASSIFICATION(' ',' ',#15) ;
#15=SECURITY_CLASSIFICATION_LEVEL('unclassified') ;
#47=CARTESIAN_POINT(' ',(0.,0.,0.)) ;
#53=CARTESIAN_POINT('Axis2P3D Location',(0.,0.,0.)) ;
#58=CARTESIAN_POINT('Line Origine',(5000.,-10000.,0.)) ;
#62=CARTESIAN_POINT('Vertex',(-5000.,-10000.,0.)) ;
#64=CARTESIAN_POINT('Vertex',(15000.,-10000.,0.)) ;
#67=CARTESIAN_POINT('Line Origine',(15000.,0.,0.)) ;
#71=CARTESIAN_POINT('Vertex',(15000.,10000.,0.)) ;
#74=CARTESIAN_POINT('Line Origine',(5000.,10000.,0.)) ;
#78=CARTESIAN_POINT('Vertex',(-5000.,10000.,0.)) ;
#81=CARTESIAN_POINT('Line Origine',(-5000.,0.,0.)) ;
#93=CARTESIAN_POINT('Control Point',(8.53999999911,16.2799999993,0.)) ;
#94=CARTESIAN_POINT('Control Point',(7.05008788541,15.0686562967,0.)) ;
#95=CARTESIAN_POINT('Control Point',(5.62548238187,13.7639084006,0.)) ;
#96=CARTESIAN_POINT('Control Point',(4.30335588006,12.3434731712,0.)) ;
#97=CARTESIAN_POINT('Control Point',(2.78236479386,10.3039079611,0.)) ;
#98=CARTESIAN_POINT('Control Point',(1.65805107541,8.04099169027,0.)) ;
#99=CARTESIAN_POINT('Control Point',(1.40813926209,7.47343936838,0.)) ;
#100=CARTESIAN_POINT('Control Point',(0.95899062194,6.32248216033,0.)) ;
#101=CARTESIAN_POINT('Control Point',(0.610456643931,5.13666987089,0.)) ;
#102=CARTESIAN_POINT('Control Point',(0.458960751841,4.52616349341,0.)) ;
#103=CARTESIAN_POINT('Control Point',(0.161009572552,3.04737564053,0.)) ;
#104=CARTESIAN_POINT('Control Point',(0.0149503621473,1.54629632697,0.)) ;
#105=CARTESIAN_POINT('Control Point',(-0.0227718703793,0.657983787083,0.)) ;
#106=CARTESIAN_POINT('Control Point',(-0.00878496592805,-0.987889667533,0.)) ;
#107=CARTESIAN_POINT('Control Point',(0.140289357478,-2.62645622346,0.)) ;
#108=CARTESIAN_POINT('Control Point',(0.237523553875,-3.41299900039,0.)) ;
#109=CARTESIAN_POINT('Control Point',(0.469010215908,-4.90576775212,0.)) ;
#110=CARTESIAN_POINT('Control Point',(0.799075062739,-6.38043588943,0.)) ;
#111=CARTESIAN_POINT('Control Point',(0.988603384613,-7.10845264167,0.)) ;
#112=CARTESIAN_POINT('Control Point',(1.35170947275,-8.32230103363,0.)) ;
#113=CARTESIAN_POINT('Control Point',(1.79123813491,-9.5136028191,0.)) ;
#114=CARTESIAN_POINT('Control Point',(1.9836688004,-9.98430408389,0.)) ;
#115=CARTESIAN_POINT('Control Point',(2.32506594051,-10.7117940631,0.)) ;
#116=CARTESIAN_POINT('Control Point',(2.73562511968,-11.3994450679,0.)) ;
#117=CARTESIAN_POINT('Control Point',(2.88844929033,-11.634110269,0.)) ;
#118=CARTESIAN_POINT('Control Point',(3.27282840417,-12.1649057976,0.)) ;
#119=CARTESIAN_POINT('Control Point',(3.696352555,-12.6660902108,0.)) ;
#120=CARTESIAN_POINT('Control Point',(3.93192857292,-12.9341618533,0.)) ;
#121=CARTESIAN_POINT('Control Point',(4.53105615536,-13.5808537178,0.)) ;
#122=CARTESIAN_POINT('Control Point',(5.16182878755,-14.1976382129,0.)) ;
#123=CARTESIAN_POINT('Control Point',(5.53721074803,-14.5489984302,0.)) ;
#124=CARTESIAN_POINT('Control Point',(6.29210373726,-15.2347338272,0.)) ;
#125=CARTESIAN_POINT('Control Point',(7.05840449241,-15.9085794247,0.)) ;
#126=CARTESIAN_POINT('Control Point',(7.39689991375,-16.2029010428,0.)) ;
#127=CARTESIAN_POINT('Control Point',(8.09896462874,-16.7893549589,0.)) ;
#128=CARTESIAN_POINT('Control Point',(8.82535562557,-17.3429887371,0.)) ;
#129=CARTESIAN_POINT('Control Point',(9.1671912718,-17.5910795707,0.)) ;
#130=CARTESIAN_POINT('Control Point',(10.2718920916,-18.3377298687,0.)) ;
#131=CARTESIAN_POINT('Control Point',(11.4471696909,-18.9741752816,0.)) ;
#132=CARTESIAN_POINT('Control Point',(12.2874381165,-19.372079489,0.)) ;
#133=CARTESIAN_POINT('Control Point',(13.43829376,-19.8618273024,0.)) ;
#134=CARTESIAN_POINT('Control Point',(14.6055645109,-20.3092382079,0.)) ;
#135=CARTESIAN_POINT('Control Point',(14.9062986391,-20.4217570427,0.)) ;
#136=CARTESIAN_POINT('Control Point',(15.6063914999,-20.6791516198,0.)) ;
#137=CARTESIAN_POINT('Control Point',(16.3086771831,-20.927538625,0.)) ;
#138=CARTESIAN_POINT('Control Point',(16.7095655922,-21.0665556825,0.)) ;
#139=CARTESIAN_POINT('Control Point',(17.6083256012,-21.3729590763,0.)) ;
#140=CARTESIAN_POINT('Control Point',(18.5096835182,-21.6705853782,0.)) ;
#141=CARTESIAN_POINT('Control Point',(19.0967335935,-21.8620843833,0.)) ;
#142=CARTESIAN_POINT('Control Point',(20.4335652009,-22.294150412,0.)) ;
#143=CARTESIAN_POINT('Control Point',(21.776370678,-22.7091418938,0.)) ;
#144=CARTESIAN_POINT('Control Point',(22.5529349252,-22.9388323292,0.)) ;
#145=CARTESIAN_POINT('Control Point',(24.5845111507,-23.5033461189,0.)) ;
#146=CARTESIAN_POINT('Control Point',(26.6302922187,-24.0146668978,0.)) ;
#147=CARTESIAN_POINT('Control Point',(27.7240893009,-24.2767437437,0.)) ;
#148=CARTESIAN_POINT('Control Point',(30.8735174958,-25.0378844337,0.)) ;
#149=CARTESIAN_POINT('Control Point',(34.0235541737,-25.7951122112,0.)) ;
#150=CARTESIAN_POINT('Control Point',(36.1792886653,-26.310542153,0.)) ;
#151=CARTESIAN_POINT('Control Point',(40.0879067631,-27.2353120152,0.)) ;
#152=CARTESIAN_POINT('Control Point',(44.0037144115,-28.1290509681,0.)) ;
#153=CARTESIAN_POINT('Control Point',(45.7991579146,-28.5284513824,0.)) ;
#154=CARTESIAN_POINT('Control Point',(48.9216908076,-29.1999621325,0.)) ;
#155=CARTESIAN_POINT('Control Point',(52.0487371877,-29.8502803521,0.)) ;
#156=CARTESIAN_POINT('Control Point',(53.2127992895,-30.0899060173,0.)) ;
#157=CARTESIAN_POINT('Control Point',(59.3824930047,-31.3548114507,0.)) ;
#158=CARTESIAN_POINT('Control Point',(65.5596725763,-32.5828738954,0.)) ;
#159=CARTESIAN_POINT('Control Point',(70.4734628083,-33.5209800007,0.)) ;
#160=CARTESIAN_POINT('Control Point',(79.1109250596,-35.07555072,0.)) ;
#161=CARTESIAN_POINT('Control Point',(87.7758850937,-36.4679521012,0.)) ;
#162=CARTESIAN_POINT('Control Point',(91.4704507527,-37.0345840107,0.)) ;
#163=CARTESIAN_POINT('Control Point',(98.1105990476,-38.0025982704,0.)) ;
#164=CARTESIAN_POINT('Control Point',(104.760474316,-38.9006180618,0.)) ;
#165=CARTESIAN_POINT('Control Point',(107.778685764,-39.2968430362,0.)) ;
#166=CARTESIAN_POINT('Control Point',(113.421454104,-40.0225760236,0.)) ;
#167=CARTESIAN_POINT('Control Point',(119.066479836,-40.7320592169,0.)) ;
#168=CARTESIAN_POINT('Control Point',(121.412175217,-41.0244512981,0.)) ;
#169=CARTESIAN_POINT('Control Point',(126.248375927,-41.609621385,0.)) ;
#170=CARTESIAN_POINT('Control Point',(131.089060767,-42.1542955237,0.)) ;
#171=CARTESIAN_POINT('Control Point',(133.359079866,-42.3994410577,0.)) ;
#172=CARTESIAN_POINT('Control Point',(138.026560534,-42.8717266714,0.)) ;
#173=CARTESIAN_POINT('Control Point',(142.699065898,-43.2924833494,0.)) ;
#174=CARTESIAN_POINT('Control Point',(145.155522475,-43.5023121975,0.)) ;
#175=CARTESIAN_POINT('Control Point',(149.499139955,-43.8585125547,0.)) ;
#176=CARTESIAN_POINT('Control Point',(153.844227822,-44.197932759,0.)) ;
#177=CARTESIAN_POINT('Control Point',(155.46467695,-44.3227396455,0.)) ;
#178=CARTESIAN_POINT('Control Point',(162.300312321,-44.849218527,0.)) ;
#179=CARTESIAN_POINT('Control Point',(169.135261553,-45.3818645967,0.)) ;
#180=CARTESIAN_POINT('Control Point',(174.083559627,-45.7608089963,0.)) ;
#181=CARTESIAN_POINT('Control Point',(183.89643228,-46.4793467965,0.)) ;
#182=CARTESIAN_POINT('Control Point',(193.716320936,-47.0940548282,0.)) ;
#183=CARTESIAN_POINT('Control Point',(198.905428929,-47.3832330824,0.)) ;
#184=CARTESIAN_POINT('Control Point',(207.41341498,-47.8171736851,0.)) ;
#185=CARTESIAN_POINT('Control Point',(215.924732582,-48.1841518184,0.)) ;
#186=CARTESIAN_POINT('Control Point',(219.645826791,-48.3331018125,0.)) ;
#187=CARTESIAN_POINT('Control Point',(228.223693794,-48.6538260777,0.)) ;
#188=CARTESIAN_POINT('Control Point',(236.803639981,-48.9108567607,0.)) ;
#189=CARTESIAN_POINT('Control Point',(241.743575655,-49.034842732,0.)) ;
#190=CARTESIAN_POINT('Control Point',(249.843699777,-49.1940867904,0.)) ;
#191=CARTESIAN_POINT('Control Point',(257.944753764,-49.2733909856,0.)) ;
#192=CARTESIAN_POINT('Control Point',(261.036980425,-49.2900523456,0.)) ;
#193=CARTESIAN_POINT('Control Point',(268.470558463,-49.3045767587,0.)) ;
#194=CARTESIAN_POINT('Control Point',(275.904253125,-49.2702666094,0.)) ;
#195=CARTESIAN_POINT('Control Point',(280.177502607,-49.2397141005,0.)) ;
#196=CARTESIAN_POINT('Control Point',(287.9347123,-49.1742270544,0.)) ;
#197=CARTESIAN_POINT('Control Point',(295.691855857,-49.1080279936,0.)) ;
#198=CARTESIAN_POINT('Control Point',(301.420518867,-49.0639606683,0.)) ;
#199=CARTESIAN_POINT('Control Point',(312.084766685,-48.9809376984,0.)) ;
#200=CARTESIAN_POINT('Control Point',(322.748828254,-48.8897130252,0.)) ;
#201=CARTESIAN_POINT('Control Point',(328.885474741,-48.8272643984,0.)) ;
#202=CARTESIAN_POINT('Control Point',(340.010380714,-48.6872661192,0.)) ;
#203=CARTESIAN_POINT('Control Point',(351.135013371,-48.5234117826,0.)) ;
#204=CARTESIAN_POINT('Control Point',(355.07986851,-48.4630207041,0.)) ;
#205=CARTESIAN_POINT('Control Point',(363.564379096,-48.329746243,0.)) ;
#206=CARTESIAN_POINT('Control Point',(372.048814806,-48.1924866921,0.)) ;
#207=CARTESIAN_POINT('Control Point',(375.729046045,-48.133097809,0.)) ;
#208=CARTESIAN_POINT('Control Point',(394.08041147,-47.829515398,0.)) ;
#209=CARTESIAN_POINT('Control Point',(412.431165427,-47.4923164178,0.)) ;
#210=CARTESIAN_POINT('Control Point',(426.160086812,-47.20277539,0.)) ;
#211=CARTESIAN_POINT('Control Point',(451.200173671,-46.5881808664,0.)) ;
#212=CARTESIAN_POINT('Control Point',(476.234629238,-45.7756614299,0.)) ;
#213=CARTESIAN_POINT('Control Point',(487.382537711,-45.366209152,0.)) ;
#214=CARTESIAN_POINT('Control Point',(509.152371362,-44.4727576157,0.)) ;
#215=CARTESIAN_POINT('Control Point',(530.913456661,-43.3888705417,0.)) ;
#216=CARTESIAN_POINT('Control Point',(541.630118229,-42.8090510687,0.)) ;
#217=CARTESIAN_POINT('Control Point',(568.219802099,-41.2361869908,0.)) ;
#218=CARTESIAN_POINT('Control Point',(594.791449196,-39.378954381,0.)) ;
#219=CARTESIAN_POINT('Control Point',(610.807690206,-38.1786082747,0.)) ;
#220=CARTESIAN_POINT('Control Point',(631.613890947,-36.544013621,0.)) ;
#221=CARTESIAN_POINT('Control Point',(652.415511462,-34.8526115001,0.)) ;
#222=CARTESIAN_POINT('Control Point',(657.187881101,-34.4621848054,0.)) ;
#223=CARTESIAN_POINT('Control Point',(670.538657481,-33.3650628938,0.)) ;
#224=CARTESIAN_POINT('Control Point',(683.888716438,-32.2592276712,0.)) ;
#225=CARTESIAN_POINT('Control Point',(688.18242093,-31.903858689,0.)) ;
#226=CARTESIAN_POINT('Control Point',(703.382395064,-30.6449433701,0.)) ;
#227=CARTESIAN_POINT('Control Point',(718.582748068,-29.3906630751,0.)) ;
#228=CARTESIAN_POINT('Control Point',(726.453313311,-28.7426919114,0.)) ;
#229=CARTESIAN_POINT('Control Point',(743.138290058,-27.378168646,0.)) ;
#230=CARTESIAN_POINT('Control Point',(759.82423291,-26.0254202756,0.)) ;
#231=CARTESIAN_POINT('Control Point',(770.209394492,-25.181589279,0.)) ;
#232=CARTESIAN_POINT('Control Point',(787.267710353,-23.7749631501,0.)) ;
#233=CARTESIAN_POINT('Control Point',(804.323203873,-22.3345122248,0.)) ;
#234=CARTESIAN_POINT('Control Point',(812.169706319,-21.6651266254,0.)) ;
#235=CARTESIAN_POINT('Control Point',(825.222233393,-20.5389842498,0.)) ;
#236=CARTESIAN_POINT('Control Point',(838.270842782,-19.3685149611,0.)) ;
#237=CARTESIAN_POINT('Control Point',(843.555048755,-18.8816894471,0.)) ;
#238=CARTESIAN_POINT('Control Point',(854.219833132,-17.8784565785,0.)) ;
#239=CARTESIAN_POINT('Control Point',(864.882952455,-16.8586502282,0.)) ;
#240=CARTESIAN_POINT('Control Point',(869.069961482,-16.4583767221,0.)) ;
#241=CARTESIAN_POINT('Control Point',(879.154103923,-15.4894714946,0.)) ;
#242=CARTESIAN_POINT('Control Point',(889.237354749,-14.5101884629,0.)) ;
#243=CARTESIAN_POINT('Control Point',(894.849749441,-13.9620446584,0.)) ;
#244=CARTESIAN_POINT('Control Point',(906.458360377,-12.8118873435,0.)) ;
#245=CARTESIAN_POINT('Control Point',(918.067272687,-11.664023456,0.)) ;
#246=CARTESIAN_POINT('Control Point',(924.203585386,-11.0664368786,0.)) ;
#247=CARTESIAN_POINT('Control Point',(931.763157097,-10.3520062163,0.)) ;
#248=CARTESIAN_POINT('Control Point',(939.325655427,-9.67701852355,0.)) ;
#249=CARTESIAN_POINT('Control Point',(940.748269804,-9.55194336422,0.)) ;
#250=CARTESIAN_POINT('Control Point',(944.869720526,-9.18886312862,0.)) ;
#251=CARTESIAN_POINT('Control Point',(948.990299912,-8.81506440573,0.)) ;
#252=CARTESIAN_POINT('Control Point',(951.687752073,-8.55727328247,0.)) ;
#253=CARTESIAN_POINT('Control Point',(955.245067368,-8.18884454896,0.)) ;
#254=CARTESIAN_POINT('Control Point',(958.797693795,-7.76864494788,0.)) ;
#255=CARTESIAN_POINT('Control Point',(959.623575845,-7.66781228189,0.)) ;
#256=CARTESIAN_POINT('Control Point',(963.871008899,-7.12914908168,0.)) ;
#257=CARTESIAN_POINT('Control Point',(968.113196809,-6.53713955251,0.)) ;
#258=CARTESIAN_POINT('Control Point',(971.510340437,-6.10885693463,0.)) ;
#259=CARTESIAN_POINT('Control Point',(975.843292427,-5.7248464702,0.)) ;
#260=CARTESIAN_POINT('Control Point',(980.191639678,-5.6741938781,0.)) ;
#261=CARTESIAN_POINT('Control Point',(981.287884313,-5.67850871715,0.)) ;
#262=CARTESIAN_POINT('Control Point',(984.65615449,-5.699859016,0.)) ;
#263=CARTESIAN_POINT('Control Point',(988.022577542,-5.66748440524,0.)) ;
#264=CARTESIAN_POINT('Control Point',(990.477196165,-5.49281497366,0.)) ;
#265=CARTESIAN_POINT('Control Point',(993.094066254,-4.97905252649,0.)) ;
#266=CARTESIAN_POINT('Control Point',(995.618470808,-4.02913252691,0.)) ;
#267=CARTESIAN_POINT('Control Point',(995.818771723,-3.9507220187,0.)) ;
#268=CARTESIAN_POINT('Control Point',(996.641553971,-3.61586387812,0.)) ;
#269=CARTESIAN_POINT('Control Point',(997.452537752,-3.23224147715,0.)) ;
#270=CARTESIAN_POINT('Control Point',(998.047059375,-2.89805886406,0.)) ;
#271=CARTESIAN_POINT('Control Point',(998.886747199,-2.29096482212,0.)) ;
#272=CARTESIAN_POINT('Control Point',(999.528848393,-1.50856379972,0.)) ;
#273=CARTESIAN_POINT('Control Point',(999.723815317,-1.2111482872,0.)) ;
#274=CARTESIAN_POINT('Control Point',(999.881879938,-0.890494085243,0.)) ;
#275=CARTESIAN_POINT('Control Point',(1000.,-0.550000000745,0.)) ;
#276=CARTESIAN_POINT('Vertex',(8.53999999911,16.2799999993,0.)) ;
#278=CARTESIAN_POINT('Vertex',(1000.,-0.550000000745,0.)) ;
#282=CARTESIAN_POINT('Control Point',(1000.,-0.550000000745,0.)) ;
#283=CARTESIAN_POINT('Control Point',(1000.13189175,-0.169807505435,0.)) ;
#284=CARTESIAN_POINT('Control Point',(1000.21398152,0.235119894184,0.)) ;
#285=CARTESIAN_POINT('Control Point',(1000.25079125,0.650772641602,0.)) ;
#286=CARTESIAN_POINT('Control Point',(1000.23856681,1.45576655268,0.)) ;
#287=CARTESIAN_POINT('Control Point',(1000.06198252,2.23491810193,0.)) ;
#288=CARTESIAN_POINT('Control Point',(999.937961,2.59719810863,0.)) ;
#289=CARTESIAN_POINT('Control Point',(999.702319413,3.07715018057,0.)) ;
#290=CARTESIAN_POINT('Control Point',(999.37710144,3.48067234594,0.)) ;
#291=CARTESIAN_POINT('Control Point',(999.272505536,3.59283173258,0.)) ;
#292=CARTESIAN_POINT('Control Point',(998.817066337,4.00848871542,0.)) ;
#293=CARTESIAN_POINT('Control Point',(998.235855865,4.25496134075,0.)) ;
#294=CARTESIAN_POINT('Control Point',(997.749788085,4.37665542441,0.)) ;
#295=CARTESIAN_POINT('Control Point',(997.176794671,4.48722038376,0.)) ;
#296=CARTESIAN_POINT('Control Point',(996.613476739,4.60736026876,0.)) ;
#297=CARTESIAN_POINT('Control Point',(996.51604923,4.62856071897,0.)) ;
#298=CARTESIAN_POINT('Control Point',(996.187020461,4.7009395678,0.)) ;
#299=CARTESIAN_POINT('Control Point',(995.860512441,4.77511432453,0.)) ;
#300=CARTESIAN_POINT('Control Point',(995.631246551,4.82745566954,0.)) ;
#301=CARTESIAN_POINT('Control Point',(995.084339252,4.95058759597,0.)) ;
#302=CARTESIAN_POINT('Control Point',(994.536313281,5.06429786955,0.)) ;
#303=CARTESIAN_POINT('Control Point',(994.261295122,5.11496908886,0.)) ;
#304=CARTESIAN_POINT('Control Point',(993.645153041,5.22030807499,0.)) ;
#305=CARTESIAN_POINT('Control Point',(993.026656647,5.32024123235,0.)) ;
#306=CARTESIAN_POINT('Control Point',(992.683494801,5.3763092596,0.)) ;
#307=CARTESIAN_POINT('Control Point',(991.818177093,5.52844560343,0.)) ;
#308=CARTESIAN_POINT('Control Point',(990.961156668,5.71725295127,0.)) ;
#309=CARTESIAN_POINT('Control Point',(990.397880794,5.85030182183,0.)) ;
#310=CARTESIAN_POINT('Control Point',(989.462653756,6.07290332752,0.)) ;
#311=CARTESIAN_POINT('Control Point',(988.523275542,6.27744368872,0.)) ;
#312=CARTESIAN_POINT('Control Point',(988.127254179,6.35659280394,0.)) ;
#313=CARTESIAN_POINT('Control Point',(987.389448031,6.50154328603,0.)) ;
#314=CARTESIAN_POINT('Control Point',(986.652070151,6.64861337065,0.)) ;
#315=CARTESIAN_POINT('Control Point',(986.24228859,6.73297819814,0.)) ;
#316=CARTESIAN_POINT('Control Point',(985.353130283,6.93214934338,0.)) ;
#317=CARTESIAN_POINT('Control Point',(984.472559704,7.1673629911,0.)) ;
#318=CARTESIAN_POINT('Control Point',(983.950208068,7.31334484388,0.)) ;
#319=CARTESIAN_POINT('Control Point',(983.110008087,7.54711498845,0.)) ;
#320=CARTESIAN_POINT('Control Point',(982.265162528,7.76206235419,0.)) ;
#321=CARTESIAN_POINT('Control Point',(981.977999867,7.830608684,0.)) ;
#322=CARTESIAN_POINT('Control Point',(981.350174685,7.97129719409,0.)) ;
#323=CARTESIAN_POINT('Control Point',(980.719599887,8.09967293513,0.)) ;
#324=CARTESIAN_POINT('Control Point',(980.411579199,8.16019076972,0.)) ;
#325=CARTESIAN_POINT('Control Point',(979.604456227,8.31531914749,0.)) ;
#326=CARTESIAN_POINT('Control Point',(978.796671783,8.46749830118,0.)) ;
#327=CARTESIAN_POINT('Control Point',(978.297725997,8.56348209104,0.)) ;
#328=CARTESIAN_POINT('Control Point',(977.416684629,8.74825378911,0.)) ;
#329=CARTESIAN_POINT('Control Point',(976.539067955,8.94844893663,0.)) ;
#330=CARTESIAN_POINT('Control Point',(976.157128136,9.03788312495,0.)) ;
#331=CARTESIAN_POINT('Control Point',(975.25949761,9.25169796728,0.)) ;
#332=CARTESIAN_POINT('Control Point',(974.362820196,9.4695660894,0.)) ;
#333=CARTESIAN_POINT('Control Point',(973.748609778,9.61849649725,0.)) ;
#334=CARTESIAN_POINT('Control Point',(971.37368331,10.176655639,0.)) ;
#335=CARTESIAN_POINT('Control Point',(968.983563249,10.6668813195,0.)) ;
#336=CARTESIAN_POINT('Control Point',(967.108118626,11.0264059706,0.)) ;
#337=CARTESIAN_POINT('Control Point',(963.900770879,11.6297942255,0.)) ;
#338=CARTESIAN_POINT('Control Point',(960.700073676,12.2658331966,0.)) ;
#339=CARTESIAN_POINT('Control Point',(959.61630511,12.4925637478,0.)) ;
#340=CARTESIAN_POINT('Control Point',(957.198794978,13.0283657895,0.)) ;
#341=CARTESIAN_POINT('Control Point',(954.785371783,13.5826604379,0.)) ;
#342=CARTESIAN_POINT('Control Point',(954.453113883,13.6589537805,0.)) ;
#343=CARTESIAN_POINT('Control Point',(949.913584237,14.6888225657,0.)) ;
#344=CARTESIAN_POINT('Control Point',(945.368838695,15.6950833603,0.)) ;
#345=CARTESIAN_POINT('Control Point',(941.961532384,16.4385309295,0.)) ;
#346=CARTESIAN_POINT('Control Point',(936.958275231,17.5190344143,0.)) ;
#347=CARTESIAN_POINT('Control Point',(931.953380115,18.5920065928,0.)) ;
#348=CARTESIAN_POINT('Control Point',(930.402431419,18.9240185733,0.)) ;
#349=CARTESIAN_POINT('Control Point',(927.3005774,19.5882411644,0.)) ;
#350=CARTESIAN_POINT('Control Point',(924.198868824,20.2531277732,0.)) ;
#351=CARTESIAN_POINT('Control Point',(922.648026317,20.5856222739,0.)) ;
#352=CARTESIAN_POINT('Control Point',(915.943757783,22.0227040537,0.)) ;
#353=CARTESIAN_POINT('Control Point',(909.238790124,23.4564513968,0.)) ;
#354=CARTESIAN_POINT('Control Point',(904.930807519,24.3716691602,0.)) ;
#355=CARTESIAN_POINT('Control Point',(895.750573733,26.3048739998,0.)) ;
#356=CARTESIAN_POINT('Control Point',(886.566940312,28.2219748129,0.)) ;
#357=CARTESIAN_POINT('Control Point',(883.059966319,28.9517868104,0.)) ;
#358=CARTESIAN_POINT('Control Point',(876.398423425,30.3405173878,0.)) ;
#359=CARTESIAN_POINT('Control Point',(869.735499017,31.7225577765,0.)) ;
#360=CARTESIAN_POINT('Control Point',(867.09764982,32.2678597265,0.)) ;
#361=CARTESIAN_POINT('Control Point',(861.918719068,33.3333538596,0.)) ;
#362=CARTESIAN_POINT('Control Point',(856.737263448,34.3864422596,0.)) ;
#363=CARTESIAN_POINT('Control Point',(854.292256991,34.8792035271,0.)) ;
#364=CARTESIAN_POINT('Control Point',(848.627306891,36.0145106256,0.)) ;
#365=CARTESIAN_POINT('Control Point',(842.960408326,37.1401326077,0.)) ;
#366=CARTESIAN_POINT('Control Point',(839.837332595,37.7591140881,0.)) ;
#367=CARTESIAN_POINT('Control Point',(832.743842541,39.1657928958,0.)) ;
#368=CARTESIAN_POINT('Control Point',(825.652377282,40.582605691,0.)) ;
#369=CARTESIAN_POINT('Control Point',(822.42698918,41.2340963905,0.)) ;
#370=CARTESIAN_POINT('Control Point',(815.776030906,42.5874407619,0.)) ;
#371=CARTESIAN_POINT('Control Point',(809.125922128,43.9449562325,0.)) ;
#372=CARTESIAN_POINT('Control Point',(806.441718731,44.4923922787,0.)) ;
#373=CARTESIAN_POINT('Control Point',(801.087493137,45.5809581758,0.)) ;
#374=CARTESIAN_POINT('Control Point',(795.731021214,46.6583607418,0.)) ;
#375=CARTESIAN_POINT('Control Point',(793.185479946,47.165940172,0.)) ;
#376=CARTESIAN_POINT('Control Point',(787.892433165,48.2140702467,0.)) ;
#377=CARTESIAN_POINT('Control Point',(782.597009272,49.2501950826,0.)) ;
#378=CARTESIAN_POINT('Control Point',(779.97471458,49.760740548,0.)) ;
#379=CARTESIAN_POINT('Control Point',(774.109433521,50.8981363601,0.)) ;
#380=CARTESIAN_POINT('Control Point',(768.24273648,52.0282204674,0.)) ;
#381=CARTESIAN_POINT('Control Point',(765.267035407,52.6001376986,0.)) ;
#382=CARTESIAN_POINT('Control Point',(753.669919022,54.819029741,0.)) ;
#383=CARTESIAN_POINT('Control Point',(742.065887545,57.0013965148,0.)) ;
#384=CARTESIAN_POINT('Control Point',(734.022510085,58.4868703598,0.)) ;
#385=CARTESIAN_POINT('Control Point',(713.055476377,62.2883159721,0.)) ;
#386=CARTESIAN_POINT('Control Point',(692.057927881,65.9194357326,0.)) ;
#387=CARTESIAN_POINT('Control Point',(679.624395038,68.0093875857,0.)) ;
#388=CARTESIAN_POINT('Control Point',(657.625497122,71.5670762112,0.)) ;
#389=CARTESIAN_POINT('Control Point',(635.58566538,74.8595960075,0.)) ;
#390=CARTESIAN_POINT('Control Point',(626.000871776,76.2376006592,0.)) ;
#391=CARTESIAN_POINT('Control Point',(609.176557682,78.5753971765,0.)) ;
#392=CARTESIAN_POINT('Control Point',(592.33371762,80.7759823849,0.)) ;
#393=CARTESIAN_POINT('Control Point',(584.705106227,81.7465242245,0.)) ;
#394=CARTESIAN_POINT('Control Point',(568.004234014,83.8144615706,0.)) ;
#395=CARTESIAN_POINT('Control Point',(551.287056822,85.7455425516,0.)) ;
#396=CARTESIAN_POINT('Control Point',(541.933731232,86.7803725072,0.)) ;
#397=CARTESIAN_POINT('Control Point',(523.443045378,88.7232658873,0.)) ;
#398=CARTESIAN_POINT('Control Point',(504.932645918,90.4700524034,0.)) ;
#399=CARTESIAN_POINT('Control Point',(495.698643079,91.2931174306,0.)) ;
#400=CARTESIAN_POINT('Control Point',(475.475367695,92.991896251,0.)) ;
#401=CARTESIAN_POINT('Control Point',(455.234742586,94.4692093036,0.)) ;
#402=CARTESIAN_POINT('Control Point',(444.42121159,95.1942407511,0.)) ;
#403=CARTESIAN_POINT('Control Point',(426.532380704,96.2661730832,0.)) ;
#404=CARTESIAN_POINT('Control Point',(408.63125541,97.1160444685,0.)) ;
#405=CARTESIAN_POINT('Control Point',(401.921808177,97.4013065411,0.)) ;
#406=CARTESIAN_POINT('Control Point',(390.6034561,97.7989537449,0.)) ;
#407=CARTESIAN_POINT('Control Point',(379.281174234,98.0356965459,0.)) ;
#408=CARTESIAN_POINT('Control Point',(374.993379788,98.0978840936,0.)) ;
#409=CARTESIAN_POINT('Control Point',(364.089505975,98.1876980924,0.)) ;
#410=CARTESIAN_POINT('Control Point',(353.184856088,98.123155535,0.)) ;
#411=CARTESIAN_POINT('Control Point',(346.708522345,98.0360107793,0.)) ;
#412=CARTESIAN_POINT('Control Point',(334.829638661,97.7969514209,0.)) ;
#413=CARTESIAN_POINT('Control Point',(322.954379455,97.4315227775,0.)) ;
#414=CARTESIAN_POINT('Control Point',(317.684001719,97.2475796827,0.)) ;
#415=CARTESIAN_POINT('Control Point',(302.629868427,96.6447058164,0.)) ;
#416=CARTESIAN_POINT('Control Point',(287.585938371,95.8196675327,0.)) ;
#417=CARTESIAN_POINT('Control Point',(277.942538309,95.1895729738,0.)) ;
#418=CARTESIAN_POINT('Control Point',(261.160789355,93.90043482,0.)) ;
#419=CARTESIAN_POINT('Control Point',(244.411151322,92.2491861165,0.)) ;
#420=CARTESIAN_POINT('Control Point',(237.304905526,91.4789113971,0.)) ;
#421=CARTESIAN_POINT('Control Point',(227.377190132,90.2955307698,0.)) ;
#422=CARTESIAN_POINT('Control Point',(217.470398694,88.9544037979,0.)) ;
#423=CARTESIAN_POINT('Control Point',(214.623955808,88.554820468,0.)) ;
#424=CARTESIAN_POINT('Control Point',(209.996504494,87.8895044689,0.)) ;
#425=CARTESIAN_POINT('Control Point',(205.37188478,87.2044240452,0.)) ;
#426=CARTESIAN_POINT('Control Point',(203.712403504,86.9559492684,0.)) ;
#427=CARTESIAN_POINT('Control Point',(199.836738037,86.3753460302,0.)) ;
#428=CARTESIAN_POINT('Control Point',(195.963133577,85.7813305149,0.)) ;
#429=CARTESIAN_POINT('Control Point',(193.914951833,85.4604680323,0.)) ;
#430=CARTESIAN_POINT('Control Point',(187.707629576,84.4585845089,0.)) ;
#431=CARTESIAN_POINT('Control Point',(181.519151247,83.3433080263,0.)) ;
#432=CARTESIAN_POINT('Control Point',(177.332567434,82.5374503724,0.)) ;
#433=CARTESIAN_POINT('Control Point',(168.635030567,80.7685274452,0.)) ;
#434=CARTESIAN_POINT('Control Point',(159.975432032,78.8226989964,0.)) ;
#435=CARTESIAN_POINT('Control Point',(155.495304819,77.7694439652,0.)) ;
#436=CARTESIAN_POINT('Control Point',(147.610419636,75.8299238605,0.)) ;
#437=CARTESIAN_POINT('Control Point',(139.760564359,73.7529470976,0.)) ;
#438=CARTESIAN_POINT('Control Point',(136.36821976,72.8285391796,0.)) ;
#439=CARTESIAN_POINT('Control Point',(130.102241732,71.0732796692,0.)) ;
#440=CARTESIAN_POINT('Control Point',(123.864884908,69.2197817705,0.)) ;
#441=CARTESIAN_POINT('Control Point',(120.950676773,68.3280458416,0.)) ;
#442=CARTESIAN_POINT('Control Point',(115.224142648,66.5202641272,0.)) ;
#443=CARTESIAN_POINT('Control Point',(109.532982754,64.6048641633,0.)) ;
#444=CARTESIAN_POINT('Control Point',(106.700935253,63.6184852804,0.)) ;
#445=CARTESIAN_POINT('Control Point',(99.7042536192,61.1182827842,0.)) ;
#446=CARTESIAN_POINT('Control Point',(92.7529068352,58.4924540153,0.)) ;
#447=CARTESIAN_POINT('Control Point',(88.7626317546,56.9495978883,0.)) ;
#448=CARTESIAN_POINT('Control Point',(80.7056825833,53.7290525705,0.)) ;
#449=CARTESIAN_POINT('Control Point',(72.7235002051,50.3285863077,0.)) ;
#450=CARTESIAN_POINT('Control Point',(68.9876231567,48.6837565454,0.)) ;
#451=CARTESIAN_POINT('Control Point',(60.9425371813,45.030234509,0.)) ;
#452=CARTESIAN_POINT('Control Point',(52.9787256409,41.2019539913,0.)) ;
#453=CARTESIAN_POINT('Control Point',(48.7325478029,39.1076210089,0.)) ;
#454=CARTESIAN_POINT('Control Point',(42.4421118624,35.9318018078,0.)) ;
#455=CARTESIAN_POINT('Control Point',(36.1979567233,32.6664116176,0.)) ;
#456=CARTESIAN_POINT('Control Point',(34.1437242455,31.5789456216,0.)) ;
#457=CARTESIAN_POINT('Control Point',(29.8075303812,29.2596124575,0.)) ;
#458=CARTESIAN_POINT('Control Point',(25.4954206638,26.8956227063,0.)) ;
#459=CARTESIAN_POINT('Control Point',(23.310235456,25.675076007,0.)) ;
#460=CARTESIAN_POINT('Control Point',(20.59130449,24.1184405372,0.)) ;
#461=CARTESIAN_POINT('Control Point',(17.8985429015,22.516961469,0.)) ;
#462=CARTESIAN_POINT('Control Point',(17.3193335394,22.170244327,0.)) ;
#463=CARTESIAN_POINT('Control Point',(15.181867796,20.8881925327,0.)) ;
#464=CARTESIAN_POINT('Control Point',(13.0639138461,19.576117182,0.)) ;
#465=CARTESIAN_POINT('Control Point',(11.5044653379,18.5512047606,0.)) ;
#466=CARTESIAN_POINT('Control Point',(9.99125227655,17.4599120835,0.)) ;
#467=CARTESIAN_POINT('Control Point',(8.53999999911,16.2799999993,0.)) ;
#54=DIRECTION('Axis2P3D Direction',(0.,0.,1.)) ;
#55=DIRECTION('Axis2P3D XDirection',(1.,0.,0.)) ;
#59=DIRECTION('Vector Direction',(1.,0.,0.)) ;
#68=DIRECTION('Vector Direction',(0.,1.,0.)) ;
#75=DIRECTION('Vector Direction',(-1.,0.,0.)) ;
#82=DIRECTION('Vector Direction',(0.,-1.,0.)) ;
#48=AXIS2_PLACEMENT_3D(' ',#47,$,$) ;
#56=AXIS2_PLACEMENT_3D('Plane Axis2P3D',#53,#54,#55) ;
#40=PRODUCT_DEFINITION_SHAPE(' ',' ',#14) ;
#31=APPROVAL_PERSON_ORGANIZATION(#25,#21,#19) ;
#25=PERSON_AND_ORGANIZATION(#22,#23) ;
#22=PERSON(' ',' ',' ',$,$,$) ;
#23=ORGANIZATION(' ',' ',' ') ;
#21=APPROVAL(#20,' ') ;
#20=APPROVAL_STATUS('not_yet_approved') ;
#19=APPROVAL_ROLE('APPROVER') ;
#13=DATE_AND_TIME(#11,#12) ;
#12=LOCAL_TIME(18,37,2.,#10) ;
#10=COORDINATED_UNIVERSAL_TIME_OFFSET(0,0,.AHEAD.) ;
#87=ORIENTED_EDGE('',*,*,#66,.T.) ;
#88=ORIENTED_EDGE('',*,*,#73,.T.) ;
#89=ORIENTED_EDGE('',*,*,#80,.T.) ;
#90=ORIENTED_EDGE('',*,*,#85,.T.) ;
#470=ORIENTED_EDGE('',*,*,#280,.F.) ;
#471=ORIENTED_EDGE('',*,*,#468,.F.) ;
#472=FACE_BOUND('',#469,.T.) ;
#51=OPEN_SHELL('Extract.1',(#473)) ;
#52=SHELL_BASED_SURFACE_MODEL('NONE',(#51)) ;
#60=VECTOR('Line Direction',#59,1.) ;
#69=VECTOR('Line Direction',#68,1.) ;
#76=VECTOR('Line Direction',#75,1.) ;
#83=VECTOR('Line Direction',#82,1.) ;
#49=SHAPE_REPRESENTATION(' ',(#48),#46) ;
#473=ADVANCED_FACE('Extract.1',(#91,#472),#57,.T.) ;
#4=APPLICATION_PROTOCOL_DEFINITION('international standard','config_control_design',1994,#1) ;
#32=APPROVAL_DATE_TIME(#13,#21) ;
#92=B_SPLINE_CURVE_WITH_KNOTS('',5,(#93,#94,#95,#96,#97,#98,#99,#100,#101,#102,#103,#104,#105,#106,#107,#108,#109,#110,#111,#112,#113,#114,#115,#116,#117,#118,#119,#120,#121,#122,#123,#124,#125,#126,#127,#128,#129,#130,#131,#132,#133,#134,#135,#136,#137,#138,#139,#140,#141,#142,#143,#144,#145,#146,#147,#148,#149,#150,#151,#152,#153,#154,#155,#156,#157,#158,#159,#160,#161,#162,#163,#164,#165,#166,#167,#168,#169,#170,#171,#172,#173,#174,#175,#176,#177,#178,#179,#180,#181,#182,#183,#184,#185,#186,#187,#188,#189,#190,#191,#192,#193,#194,#195,#196,#197,#198,#199,#200,#201,#202,#203,#204,#205,#206,#207,#208,#209,#210,#211,#212,#213,#214,#215,#216,#217,#218,#219,#220,#221,#222,#223,#224,#225,#226,#227,#228,#229,#230,#231,#232,#233,#234,#235,#236,#237,#238,#239,#240,#241,#242,#243,#244,#245,#246,#247,#248,#249,#250,#251,#252,#253,#254,#255,#256,#257,#258,#259,#260,#261,#262,#263,#264,#265,#266,#267,#268,#269,#270,#271,#272,#273,#274,#275),.UNSPECIFIED.,.F.,.U.,(6,3,3,3,3,3,3,3,3,3,3,3,3,3,3,3,3,3,3,3,3,3,3,3,3,3,3,3,3,3,3,3,3,3,3,3,3,3,3,3,3,3,3,3,3,3,3,3,3,3,3,3,3,3,3,3,3,3,3,3,6),(0.,13.526856157,17.8465320903,22.2408840988,28.4910120252,33.8697414459,39.1718181355,42.8108031296,44.8385027852,47.4448841623,51.0765026577,54.6491152488,57.5390970651,64.0919133172,66.3571674135,69.3585782119,73.0767703995,79.2985085354,87.9924593449,102.218474243,116.405682165,124.813050987,160.958797349,186.894583851,208.428900048,227.140952143,242.889393586,260.32972034,273.719633162,308.82718741,343.324995789,369.091588264,404.046055888,426.403867044,456.633839047,481.2808196,532.077590119,559.987661134,592.106353565,689.827669941,769.297576264,843.958322773,957.72620083,991.599931468,1052.49132803,1099.49662596,1170.91922022,1220.58105648,1263.59893881,1296.35921553,1335.26620707,1378.87994329,1388.98404583,1408.15300675,1414.28140221,1438.42205477,1445.03298727,1462.23000309,1463.71658557,1468.3585782,1470.86272489),.UNSPECIFIED.) ;
#281=B_SPLINE_CURVE_WITH_KNOTS('',5,(#282,#283,#284,#285,#286,#287,#288,#289,#290,#291,#292,#293,#294,#295,#296,#297,#298,#299,#300,#301,#302,#303,#304,#305,#306,#307,#308,#309,#310,#311,#312,#313,#314,#315,#316,#317,#318,#319,#320,#321,#322,#323,#324,#325,#326,#327,#328,#329,#330,#331,#332,#333,#334,#335,#336,#337,#338,#339,#340,#341,#342,#343,#344,#345,#346,#347,#348,#349,#350,#351,#352,#353,#354,#355,#356,#357,#358,#359,#360,#361,#362,#363,#364,#365,#366,#367,#368,#369,#370,#371,#372,#373,#374,#375,#376,#377,#378,#379,#380,#381,#382,#383,#384,#385,#386,#387,#388,#389,#390,#391,#392,#393,#394,#395,#396,#397,#398,#399,#400,#401,#402,#403,#404,#405,#406,#407,#408,#409,#410,#411,#412,#413,#414,#415,#416,#417,#418,#419,#420,#421,#422,#423,#424,#425,#426,#427,#428,#429,#430,#431,#432,#433,#434,#435,#436,#437,#438,#439,#440,#441,#442,#443,#444,#445,#446,#447,#448,#449,#450,#451,#452,#453,#454,#455,#456,#457,#458,#459,#460,#461,#462,#463,#464,#465,#466,#467),.UNSPECIFIED.,.F.,.U.,(6,3,3,3,3,3,3,3,3,3,3,3,3,3,3,3,3,3,3,3,3,3,3,3,3,3,3,3,3,3,3,3,3,3,3,3,3,3,3,3,3,3,3,3,3,3,3,3,3,3,3,3,3,3,3,3,3,3,3,3,3,6),(0.,2.79610666793,5.38773820016,6.46892887281,9.79815908744,10.497134803,12.1644864341,14.4798142834,16.5911956809,20.6857706546,23.3936056797,26.0041582132,29.8398321314,32.1719054797,34.3923125014,37.9853276804,40.7601745928,44.5128051307,58.0189984851,67.5967017444,75.536098388,100.526066617,111.74642058,122.966774543,160.251438512,189.334531794,208.38986319,226.738957855,249.262109234,277.897191074,297.2768028,316.549252531,335.448281452,358.814566118,418.9772151,509.558107686,576.620240931,629.718249133,695.666013181,761.243388316,839.229823524,888.016292305,919.343300336,965.154287806,1003.38642413,1071.73458981,1122.44144132,1142.45657286,1155.5137584,1170.17930408,1199.99403426,1232.95935032,1257.43085949,1278.98540646,1299.90965794,1331.54459029,1361.28247146,1394.04599178,1411.12917976,1428.83193229,1433.29131491,1446.46717986),.UNSPECIFIED.) ;
#11=CALENDAR_DATE(2026,22,1) ;
#30=CC_DESIGN_APPROVAL(#21,(#16,#6,#14)) ;
#18=CC_DESIGN_DATE_AND_TIME_ASSIGNMENT(#13,#17,(#16)) ;
#29=CC_DESIGN_DATE_AND_TIME_ASSIGNMENT(#13,#28,(#14)) ;
#17=DATE_TIME_ROLE('classification_date') ;
#28=DATE_TIME_ROLE('creation_date') ;
#27=CC_DESIGN_PERSON_AND_ORGANIZATION_ASSIGNMENT(#25,#26,(#16)) ;
#33=CC_DESIGN_PERSON_AND_ORGANIZATION_ASSIGNMENT(#25,#34,(#6)) ;
#35=CC_DESIGN_PERSON_AND_ORGANIZATION_ASSIGNMENT(#25,#36,(#6,#14)) ;
#37=CC_DESIGN_PERSON_AND_ORGANIZATION_ASSIGNMENT(#25,#38,(#5)) ;
#26=PERSON_AND_ORGANIZATION_ROLE('classification_officer') ;
#34=PERSON_AND_ORGANIZATION_ROLE('design_supplier') ;
#36=PERSON_AND_ORGANIZATION_ROLE('creator') ;
#38=PERSON_AND_ORGANIZATION_ROLE('design_owner') ;
#39=CC_DESIGN_SECURITY_CLASSIFICATION(#16,(#6)) ;
#475=SHAPE_REPRESENTATION_RELATIONSHIP(' ',' ',#49,#474) ;
#3=DESIGN_CONTEXT(' ',#1,'design') ;
#66=EDGE_CURVE('',#63,#65,#61,.T.) ;
#73=EDGE_CURVE('',#65,#72,#70,.T.) ;
#80=EDGE_CURVE('',#72,#79,#77,.T.) ;
#85=EDGE_CURVE('',#79,#63,#84,.T.) ;
#280=EDGE_CURVE('',#277,#279,#92,.T.) ;
#468=EDGE_CURVE('',#279,#277,#281,.T.) ;
#86=EDGE_LOOP('',(#87,#88,#89,#90)) ;
#469=EDGE_LOOP('',(#470,#471)) ;
#91=FACE_OUTER_BOUND('',#86,.T.) ;
#45=UNCERTAINTY_MEASURE_WITH_UNIT(LENGTH_MEASURE(0.005),#41,'distance_accuracy_value','CONFUSED CURVE UNCERTAINTY') ;
#61=LINE('Line',#58,#60) ;
#70=LINE('Line',#67,#69) ;
#77=LINE('Line',#74,#76) ;
#84=LINE('Line',#81,#83) ;
#474=MANIFOLD_SURFACE_SHAPE_REPRESENTATION('NONE',(#52),#46) ;
#2=MECHANICAL_CONTEXT(' ',#1,'mechanical') ;
#24=PERSONAL_ADDRESS(' ',' ',' ',' ',' ',' ',' ',' ',' ',' ',' ',' ',(#22),' ') ;
#57=PLANE('Plane',#56) ;
#43=PLANE_ANGLE_MEASURE_WITH_UNIT(PLANE_ANGLE_MEASURE(0.0174532925199),#42) ;
#7=PRODUCT_CATEGORY('part',$) ;
#9=PRODUCT_CATEGORY_RELATIONSHIP(' ',' ',#7,#8) ;
#6=PRODUCT_DEFINITION_FORMATION_WITH_SPECIFIED_SOURCE('',' ',#5,.NOT_KNOWN.) ;
#8=PRODUCT_RELATED_PRODUCT_CATEGORY('detail',$,(#5)) ;
#50=SHAPE_DEFINITION_REPRESENTATION(#40,#49) ;
#63=VERTEX_POINT('',#62) ;
#65=VERTEX_POINT('',#64) ;
#72=VERTEX_POINT('',#71) ;
#79=VERTEX_POINT('',#78) ;
#277=VERTEX_POINT('',#276) ;
#279=VERTEX_POINT('',#278) ;
#41=(LENGTH_UNIT()NAMED_UNIT(*)SI_UNIT(.MILLI.,.METRE.)) ;
#42=(NAMED_UNIT(*)PLANE_ANGLE_UNIT()SI_UNIT($,.RADIAN.)) ;
#44=(NAMED_UNIT(*)SI_UNIT($,.STERADIAN.)SOLID_ANGLE_UNIT()) ;
#46=(GEOMETRIC_REPRESENTATION_CONTEXT(3)GLOBAL_UNCERTAINTY_ASSIGNED_CONTEXT((#45))GLOBAL_UNIT_ASSIGNED_CONTEXT((#41,#42,#44))REPRESENTATION_CONTEXT(' ',' ')) ;
ENDSEC;
END-ISO-10303-21;
